<?xml version="1.0" encoding="UTF-8" standalone="no"?>
<!-- Created with Inkscape (http://www.inkscape.org/) -->

<!-- From http://www.openclipart.org/detail/3422 -->

<svg
   xmlns:dc="http://purl.org/dc/elements/1.1/"
   xmlns:cc="http://creativecommons.org/ns#"
   xmlns:rdf="http://www.w3.org/1999/02/22-rdf-syntax-ns#"
   xmlns:svg="http://www.w3.org/2000/svg"
   xmlns="http://www.w3.org/2000/svg"
   xmlns:xlink="http://www.w3.org/1999/xlink"
   xmlns:sodipodi="http://sodipodi.sourceforge.net/DTD/sodipodi-0.dtd"
   xmlns:inkscape="http://www.inkscape.org/namespaces/inkscape"
   width="446.78296"
   height="297.85736"
   id="svg2"
   sodipodi:version="0.32"
   inkscape:version="0.47 r22583"
   sodipodi:docname="mouse.svg"
   inkscape:output_extension="org.inkscape.output.svg.inkscape"
   version="1.0"
   inkscape:export-filename="/home/adam/code/github/adam-f.github.src/source/resource/mouse.png"
   inkscape:export-xdpi="50.360001"
   inkscape:export-ydpi="50.360001">
  <defs
     id="defs4">
    <inkscape:perspective
       sodipodi:type="inkscape:persp3d"
       inkscape:vp_x="0 : 148.92868 : 1"
       inkscape:vp_y="0 : 1000 : 0"
       inkscape:vp_z="446.78296 : 148.92868 : 1"
       inkscape:persp3d-origin="223.39148 : 99.285787 : 1"
       id="perspective19" />
    <linearGradient
       inkscape:collect="always"
       id="linearGradient10002">
      <stop
         style="stop-color:#000000;stop-opacity:1;"
         offset="0"
         id="stop10004" />
      <stop
         style="stop-color:#000000;stop-opacity:0;"
         offset="1"
         id="stop10006" />
    </linearGradient>
    <linearGradient
       inkscape:collect="always"
       xlink:href="#linearGradient10002"
       id="linearGradient10008"
       x1="308.28772"
       y1="206.87651"
       x2="303.34723"
       y2="201.936"
       gradientUnits="userSpaceOnUse"
       gradientTransform="translate(-28.600931,46.201345)" />
  </defs>
  <sodipodi:namedview
     id="base"
     pagecolor="#ffffff"
     bordercolor="#666666"
     borderopacity="1.0"
     inkscape:pageopacity="0.0"
     inkscape:pageshadow="2"
     inkscape:zoom="1.66373"
     inkscape:cx="243.73251"
     inkscape:cy="148.24114"
     inkscape:document-units="px"
     inkscape:current-layer="layer1"
     showguides="true"
     inkscape:guide-bbox="true"
     inkscape:window-width="1024"
     inkscape:window-height="712"
     inkscape:window-x="198"
     inkscape:window-y="261"
     height="500px"
     width="744.09448px"
     showgrid="false" />
  <metadata
     id="metadata7">
    <rdf:RDF>
      <cc:Work
         rdf:about="">
        <dc:format>image/svg+xml</dc:format>
        <dc:type
           rdf:resource="http://purl.org/dc/dcmitype/StillImage" />
        <dc:title></dc:title>
      </cc:Work>
    </rdf:RDF>
  </metadata>
  <g
     inkscape:label="Capa 1"
     inkscape:groupmode="layer"
     id="layer1"
     transform="translate(-121.18624,-120.38943)">
    <path
       style="fill:#ffffff;fill-rule:evenodd;stroke:#000000;stroke-width:6;stroke-linecap:butt;stroke-linejoin:miter;stroke-miterlimit:4;stroke-dasharray:none;stroke-opacity:1;fill-opacity:1"
       d="M 211.39907,348.56353 C 177.39907,299.56353 175.39907,290.56353 175.39907,290.56353 L 177.39907,275.56353 C 177.39907,275.56353 219.39907,224.56353 279.39907,180.56353 C 327.74104,145.11275 369.59149,128.48737 403.38137,124.41114 C 411.53005,123.42812 419.20995,123.17493 426.39907,123.56353 C 463.39907,125.56353 510.39907,137.56353 537.39907,162.56353 C 564.39907,187.56353 566.39907,211.56353 564.39907,229.56353 C 562.39907,247.56353 537.39907,281.56353 537.39907,281.56353 C 537.39907,281.56353 319.39907,390.56353 311.39907,390.56353 C 303.39907,390.56353 282.39907,383.56353 282.39907,383.56353 C 282.39907,383.56353 261.39907,377.56353 247.39907,373.56353 C 233.39907,369.56353 212.39907,350.56353 211.39907,348.56353 z"
       id="path3199"
       sodipodi:nodetypes="cccssssscscsc" />
    <path
       id="path2862"
       style="fill:#ffafaf;fill-rule:evenodd;stroke:#9f0000;stroke-width:1px;stroke-linecap:butt;stroke-linejoin:miter;stroke-opacity:1;fill-opacity:1"
       d="m 343.37527,211.21037 c -1,1 69.0238,49.35316 75.0238,55.35316 6,6 5.9947,3.58517 7.18358,11.79788 -25.01323,13.02118 -98.18358,68.20212 -106.18358,73.20212 -8,5 -12,8 -17,7 -5,-1 -31,-15 -49,-22 -18,-7 -32,-12 -32.5,-13 -0.5,-1 2.29788,-7.79788 6.09311,-12.30053 8.59842,10.1143 39.40689,-16.69947 61.40689,-34.69947 22,-18 52.73012,-59.10708 54.73012,-65.10708"
       sodipodi:nodetypes="cscsssccsc" />
    <path
       style="fill:none;fill-rule:evenodd;stroke:#000000;stroke-width:4;stroke-linecap:butt;stroke-linejoin:miter;stroke-miterlimit:4;stroke-dasharray:none;stroke-opacity:1"
       d="M 175.39907,288.56353 C 202.39907,320.56353 212.39907,337.56353 219.39907,343.56353 C 226.39907,349.56353 253.39907,353.56353 271.39907,361.56353 C 289.39907,369.56353 298.39907,373.56353 305.39907,373.56353 C 312.39907,373.56353 344.39907,352.56353 371.39907,332.56353 C 398.39907,312.56353 439.39907,283.56353 462.39907,273.56353 C 485.39907,263.56353 492.39907,258.56353 508.39907,258.56353 C 524.39907,258.56353 535.39907,268.56353 535.39907,268.56353 L 555.39907,251.9363 L 560.44932,242.86823"
       id="path4172"
       sodipodi:nodetypes="cssssssccc" />
    <path
       style="fill:none;fill-rule:evenodd;stroke:#000000;stroke-width:4;stroke-linecap:butt;stroke-linejoin:miter;stroke-miterlimit:4;stroke-dasharray:none;stroke-opacity:1"
       d="M 427.39907,291.56353 C 427.39907,278.56353 424.39907,272.56353 418.39907,266.56353 C 412.39907,260.56353 342.37527,212.21037 343.37527,211.21037 C 344.37527,210.21037 347.39907,202.56353 349.39907,197.56353 C 351.39907,192.56353 349.39907,191.56353 343.39907,191.56353 C 337.39907,191.56353 324.39907,199.56353 324.39907,199.56353 C 324.39907,199.56353 309.39907,190.56353 299.39907,186.56353 C 289.39907,182.56353 284.39907,180.56353 284.39907,180.56353 L 279.39907,179.56353"
       id="path4174"
       sodipodi:nodetypes="csssscscc" />
    <path
       style="fill:none;fill-rule:evenodd;stroke:#000000;stroke-width:4;stroke-linecap:butt;stroke-linejoin:miter;stroke-miterlimit:4;stroke-dasharray:none;stroke-opacity:1"
       d="M 258.23628,256.32556 C 244.71654,272.22226 225.39907,300.56353 225.39907,306.56353 C 225.39907,312.56353 226.39907,313.56353 233.39907,313.56353 C 240.39907,313.56353 266.39907,294.56353 288.39907,276.56353 C 310.39907,258.56353 341.12919,217.45645 343.12919,211.45645 C 345.12919,205.45645 350.39907,194.56353 347.39907,191.56353 C 344.39907,188.56353 324.62032,197.47046 307.39907,210.56353 C 285.1173,227.50404 273.04591,240.18657 258.23628,256.32556 z"
       id="path4176"
       sodipodi:nodetypes="cssssssc" />
    <path
       style="fill:none;fill-rule:evenodd;stroke:#000000;stroke-width:4;stroke-linecap:butt;stroke-linejoin:miter;stroke-miterlimit:4;stroke-dasharray:none;stroke-opacity:1"
       d="m 226.39907,311.56353 c -4,5 -6,11 -6,11 l 0,20 0,0"
       id="path4180"
       sodipodi:nodetypes="cccc" />
    <path
       style="fill:none;fill-rule:evenodd;stroke:#000000;stroke-width:1px;stroke-linecap:butt;stroke-linejoin:miter;stroke-opacity:1"
       d="m 179.39907,275.56353 c 14.62082,15.77896 27.95827,32.70058 42,49 0,0 14,5 32,12 18,7 44,21 49,22 5,1 9,-2 17,-7 8,-5 98,-71 123,-84 25,-13 40,-22 50,-24 10,-2 13,-2 13,-2"
       id="path8058"
       sodipodi:nodetypes="ccsssssc" />
    <path
       style="fill:url(#linearGradient10008);fill-opacity:1;fill-rule:evenodd;stroke:#000000;stroke-width:6;stroke-linecap:butt;stroke-linejoin:miter;stroke-miterlimit:4;stroke-opacity:1;stroke-dasharray:none"
       d="m 259.73378,277.90271 c 0,0 5.83575,2.43945 11.05721,0 5.22145,-2.43947 16.27866,-11.58746 23.03584,-18.90584 6.75718,-7.31838 11.36435,-13.11211 12.28578,-14.94171 0.92143,-1.82959 0.92143,-7.62332 -1.53572,-8.84304 -2.45715,-1.21973 -10.75006,-0.30494 -15.05008,1.52466 -4.30003,1.82959 -12.28579,8.84305 -19.35011,16.46637 -7.06433,7.62332 -12.59293,11.28251 -12.59293,15.8565 0,4.574 0.92143,8.53812 2.15001,8.84306 z"
       id="path9031"
       sodipodi:nodetypes="csssssssc" />
    <path
       style="fill:#000000;fill-opacity:1;fill-rule:evenodd;stroke:#000000;stroke-width:1px;stroke-linecap:butt;stroke-linejoin:miter;stroke-opacity:1"
       d="M 136.79402,413.45991 C 136.79402,413.45991 156.62897,403.54243 182.47451,385.51066 C 208.32005,367.47889 224.24811,355.75824 224.24811,355.75824 C 224.24811,355.75824 225.45023,356.3593 225.75076,353.05347 C 226.05129,349.74765 229.05659,349.74765 223.04599,347.34341 C 217.0354,344.93917 212.52746,350.64923 204.11263,356.05877 C 195.69781,361.4683 182.77504,371.98683 167.74856,381.60378 C 152.72208,391.22072 138.5972,400.53714 133.18766,403.54243 C 127.77813,406.54773 125.3739,408.65143 123.57072,410.75514 C 121.76754,412.85885 120.86595,414.06097 122.66913,416.16467 C 124.47231,418.26838 126.27549,417.66732 128.67972,417.66732 C 131.08396,417.66732 137.39508,413.76044 136.79402,413.45991 z"
       id="path10012" />
    <text
       xml:space="preserve"
       style="font-size:63.29909515px;font-style:normal;font-variant:normal;font-weight:normal;font-stretch:normal;text-align:start;line-height:100%;writing-mode:lr-tb;text-anchor:start;fill:#000000;fill-opacity:1;stroke:none;font-family:Gentium;-inkscape-font-specification:Gentium"
       x="404.50876"
       y="399.28403"
       id="text3637"
       sodipodi:linespacing="100%"><tspan
         sodipodi:role="line"
         id="tspan3639"
         x="404.50876"
         y="399.28403"
         style="font-size:63.29909515px;font-style:italic;font-variant:normal;font-weight:normal;font-stretch:normal;text-align:start;line-height:100%;writing-mode:lr-tb;text-anchor:start;fill:#ddddff;fill-opacity:1;font-family:Sans;-inkscape-font-specification:Sans Italic">Click</tspan></text>
  </g>
</svg>
